<svg fill="none" xmlns:xlink="http://www.w3.org/1999/xlink" xmlns="http://www.w3.org/2000/svg" viewBox="0 255.6363316684168 1442.230695153061 800.57758561344" style="max-height: 500px" width="1442.230695153061" height="800.57758561344">
	<path fill-rule="evenodd" fill="rgb(225,255,143)" d="M0 256.31L1440 256.31L1440 1056.31L0 1056.31L0 256.31Z" id="Форма 1"/>
	<path fill-rule="evenodd" fill="rgb(32,32,39)" d="M1556.28 448.032L1831.47 418.494L1833.52 418.275C1833.52 418.275 1832.86 417.998 1831.62 417.472C1808.5 407.702 1581.61 311.843 1562.68 305.048C1562.22 304.886 1561.89 304.774 1561.68 304.716L1562.31 303.862L1724.7 81.3537L1726.48 78.912L1723.99 80.6267L1472.7 253.715L1471.77 254.358L1471.64 253.232L1443.35 2.82446L1443.03 0L1442.34 2.75624L1379.29 252.826L1379.04 253.813L1378.11 253.38L1101.64 123.322L1099.4 122.269L1101.03 124.137L1214.92 255.31L1215.79 256.31L0 256.31L0 1056.31L1440 1056.31L1440 711.154L1441 715.094L1457.04 778.299L1457.77 781.166L1458.06 778.222L1482.93 520.833L1483.04 519.722L1483.98 520.312L1728.53 672.44L1730.99 673.97L1729.21 671.686L1555.83 449.086L1555.11 448.158L1556.28 448.032ZM1726.76 670.156L1553.22 447.355L1829.57 417.692C1819.2 413.309 1806.64 408.005 1791.89 401.783C1758.52 387.709 1728.12 374.904 1700.66 363.367C1661.97 347.105 1630.98 334.142 1607.72 324.477C1578.98 312.537 1563.54 306.271 1561.41 305.679L1560.02 305.292L1722.21 83.0685L1470.96 256.128L1442.65 5.5807L1379.71 255.235L1103.26 125.19L1216.25 255.31L1441 255.31L1441 711.03L1457.33 775.356L1482.2 518.022L1726.76 670.156ZM1439 703.151L1439 257.31L1217.98 257.31L1300.07 351.85L1036.55 430.868L1317.47 443.669L1159.2 633.261L1388.53 504.329L1439 703.151ZM1215.34 257.31L1105.6 257.31L1172.83 335.285L854.229 410.283L853.771 408.336L1169.17 334.094L1102.96 257.31L1 257.31L1 1055.31L1439 1055.31L1439 1034.21L1338.15 636.954L1225.57 715.177L1224.43 713.534L1339.37 633.665L1439 1026.08L1439 711.279L1387.24 507.352L1155.43 637.675L1154.17 636.162L1313.35 445.483L1030.58 432.598L1030.34 430.641L1296.53 350.823L1215.34 257.31ZM179.005 337.305L173.5 322.428L167.995 337.305L153.118 342.81L167.995 348.315L173.5 363.191L179.005 348.315L193.882 342.81L179.005 337.305ZM173.5 328.191L177.448 338.862L177.88 339.021L188.118 342.81L177.448 346.758L173.5 357.428L169.552 346.758L158.882 342.81L169.552 338.862L173.5 328.191ZM99.976 370.334L91.5 347.428L83.024 370.334L60.1184 378.81L83.024 387.286L91.5 410.191L99.976 387.286L122.882 378.81L99.976 370.334ZM91.5 353.191L98.4195 371.891L98.8507 372.05L117.118 378.81L98.4195 385.729L91.5 404.428L84.5805 385.729L65.8816 378.81L84.5805 371.891L91.5 353.191ZM1211.07 509.31L1085.08 509.31L1085.08 511.31L1206.93 511.31L1066.22 688.688L1067.78 689.931L1211.07 509.31ZM1328.5 852.88L1304.14 724.124L1303.78 722.213L1245.54 783.154L1328.5 852.88ZM1302.54 726.407L1325.5 847.739L1248.46 782.995L1302.54 726.407ZM972.275 807.035L966.5 791.428L960.725 807.035L945.118 812.81L960.725 818.585L966.5 834.191L972.275 818.585L987.882 812.81L972.275 807.035ZM966.5 797.191L970.718 808.591L971.15 808.751L982.118 812.81L970.718 817.028L966.5 828.428L962.282 817.028L950.882 812.81L962.282 808.591L966.5 797.191ZM1066.49 853.823L1054.5 821.428L1042.51 853.823L1010.12 865.81L1042.51 877.797L1054.5 910.191L1066.49 877.797L1098.88 865.81L1066.49 853.823ZM1054.5 827.191L1064.93 855.379L1065.36 855.539L1093.12 865.81L1064.93 876.24L1054.5 904.428L1044.07 876.24L1015.88 865.81L1044.07 855.379L1054.5 827.191ZM1379.96 1043.05L1345.96 919.045L1344.04 919.574L1378.04 1043.57L1379.96 1043.05Z" id="Форма 1"/>
	<path fill-rule="evenodd" fill="rgb(225,255,143)" d="M1561.68 304.716C1571.11 307.341 1833.52 418.275 1833.52 418.275L1555.11 448.158L1730.99 673.97L1483.04 519.722L1457.77 781.166L1387.88 505.841L1154.94 636.803L1315.41 444.576L1030.63 431.599L1298.3 351.337L1099.4 122.269L1379.04 253.813L1443.03 0L1471.77 254.358L1726.48 78.912L1561.68 304.716Z" id="Форма 1"/>
	<path fill-rule="evenodd" fill="rgb(188,236,48)" d="M1561.68 304.716C1571.11 307.341 1833.52 418.275 1833.52 418.275L1555.11 448.158L1730.99 673.97L1483.04 519.722L1457.77 781.166L1387.88 505.841L1154.94 636.803L1315.41 444.576L1030.63 431.599L1298.3 351.337L1099.4 122.269L1379.04 253.813L1443.03 0L1471.77 254.358L1726.48 78.912L1561.68 304.716Z" id="Форма 1"/>
	<path fill-rule="evenodd" fill="rgb(32,32,39)" d="M1556.28 448.032L1831.47 418.494L1833.52 418.275C1833.52 418.275 1832.86 417.998 1831.62 417.472C1808.5 407.702 1581.61 311.843 1562.68 305.048C1562.22 304.886 1561.89 304.774 1561.68 304.716L1562.31 303.862L1724.7 81.3537L1726.48 78.912L1723.99 80.6267L1472.7 253.715L1471.77 254.358L1471.64 253.232L1443.35 2.82446L1443.03 0L1442.34 2.75624L1379.29 252.826L1379.04 253.813L1378.11 253.38L1101.64 123.322L1099.4 122.269L1101.03 124.137L1214.92 255.31L1215.79 256.31L0 256.31L0 1056.31L1440 1056.31L1440 711.154L1441 715.094L1457.04 778.299L1457.77 781.166L1458.06 778.222L1482.93 520.833L1483.04 519.722L1483.98 520.312L1728.53 672.44L1730.99 673.97L1729.21 671.686L1555.83 449.086L1555.11 448.158L1556.28 448.032ZM1726.76 670.156L1553.22 447.355L1829.57 417.692C1819.2 413.309 1806.64 408.005 1791.89 401.783C1758.52 387.709 1728.12 374.904 1700.66 363.367C1661.97 347.105 1630.98 334.142 1607.72 324.477C1578.98 312.537 1563.54 306.271 1561.41 305.679L1560.02 305.292L1722.21 83.0685L1470.96 256.128L1442.65 5.5807L1379.71 255.235L1103.26 125.19L1216.25 255.31L1441 255.31L1441 711.03L1457.33 775.356L1482.2 518.022L1726.76 670.156ZM1439 703.151L1439 257.31L1217.98 257.31L1300.07 351.85L1036.55 430.868L1317.47 443.669L1159.2 633.261L1388.53 504.329L1439 703.151ZM1215.34 257.31L1105.6 257.31L1172.83 335.285L854.229 410.283L853.771 408.336L1169.17 334.094L1102.96 257.31L1 257.31L1 1055.31L1439 1055.31L1439 1034.21L1338.15 636.954L1225.57 715.177L1224.43 713.534L1339.37 633.665L1439 1026.08L1439 711.279L1387.24 507.352L1155.43 637.675L1154.17 636.162L1313.35 445.483L1030.58 432.598L1030.34 430.641L1296.53 350.823L1215.34 257.31ZM179.005 337.305L173.5 322.428L167.995 337.305L153.118 342.81L167.995 348.315L173.5 363.191L179.005 348.315L193.882 342.81L179.005 337.305ZM173.5 328.191L177.448 338.862L177.88 339.021L188.118 342.81L177.448 346.758L173.5 357.428L169.552 346.758L158.882 342.81L169.552 338.862L173.5 328.191ZM99.976 370.334L91.5 347.428L83.024 370.334L60.1184 378.81L83.024 387.286L91.5 410.191L99.976 387.286L122.882 378.81L99.976 370.334ZM91.5 353.191L98.4195 371.891L98.8507 372.05L117.118 378.81L98.4195 385.729L91.5 404.428L84.5805 385.729L65.8816 378.81L84.5805 371.891L91.5 353.191ZM1211.07 509.31L1085.08 509.31L1085.08 511.31L1206.93 511.31L1066.22 688.688L1067.78 689.931L1211.07 509.31ZM1328.5 852.88L1304.14 724.124L1303.78 722.213L1245.54 783.154L1328.5 852.88ZM1302.54 726.407L1325.5 847.739L1248.46 782.995L1302.54 726.407ZM972.275 807.035L966.5 791.428L960.725 807.035L945.118 812.81L960.725 818.585L966.5 834.191L972.275 818.585L987.882 812.81L972.275 807.035ZM966.5 797.191L970.718 808.591L971.15 808.751L982.118 812.81L970.718 817.028L966.5 828.428L962.282 817.028L950.882 812.81L962.282 808.591L966.5 797.191ZM1066.49 853.823L1054.5 821.428L1042.51 853.823L1010.12 865.81L1042.51 877.797L1054.5 910.191L1066.49 877.797L1098.88 865.81L1066.49 853.823ZM1054.5 827.191L1064.93 855.379L1065.36 855.539L1093.12 865.81L1064.93 876.24L1054.5 904.428L1044.07 876.24L1015.88 865.81L1044.07 855.379L1054.5 827.191ZM1379.96 1043.05L1345.96 919.045L1344.04 919.574L1378.04 1043.57L1379.96 1043.05Z" id="Форма 1"/>
	<path fill-rule="evenodd" fill="rgb(225,255,143)" d="M1303.16 724.31L1247 783.075L1327 850.31L1303.16 724.31Z" id="Форма 1"/>
	<path fill-rule="evenodd" fill="rgb(188,236,48)" d="M1303.16 724.31L1247 783.075L1327 850.31L1303.16 724.31Z" id="Форма 1"/>
	<path fill-rule="evenodd" fill="rgb(32,32,39)" d="M1556.28 448.032L1831.47 418.494L1833.52 418.275C1833.52 418.275 1832.86 417.998 1831.62 417.472C1808.5 407.702 1581.61 311.843 1562.68 305.048C1562.22 304.886 1561.89 304.774 1561.68 304.716L1562.31 303.862L1724.7 81.3537L1726.48 78.912L1723.99 80.6267L1472.7 253.715L1471.77 254.358L1471.64 253.232L1443.35 2.82446L1443.03 0L1442.34 2.75624L1379.29 252.826L1379.04 253.813L1378.11 253.38L1101.64 123.322L1099.4 122.269L1101.03 124.137L1214.92 255.31L1215.79 256.31L0 256.31L0 1056.31L1440 1056.31L1440 711.154L1441 715.094L1457.04 778.299L1457.77 781.166L1458.06 778.222L1482.93 520.833L1483.04 519.722L1483.98 520.312L1728.53 672.44L1730.99 673.97L1729.21 671.686L1555.83 449.086L1555.11 448.158L1556.28 448.032ZM1726.76 670.156L1553.22 447.355L1829.57 417.692C1819.2 413.309 1806.64 408.005 1791.89 401.783C1758.52 387.709 1728.12 374.904 1700.66 363.367C1661.97 347.105 1630.98 334.142 1607.72 324.477C1578.98 312.537 1563.54 306.271 1561.41 305.679L1560.02 305.292L1722.21 83.0685L1470.96 256.128L1442.65 5.5807L1379.71 255.235L1103.26 125.19L1216.25 255.31L1441 255.31L1441 711.03L1457.33 775.356L1482.2 518.022L1726.76 670.156ZM1439 703.151L1439 257.31L1217.98 257.31L1300.07 351.85L1036.55 430.868L1317.47 443.669L1159.2 633.261L1388.53 504.329L1439 703.151ZM1215.34 257.31L1105.6 257.31L1172.83 335.285L854.229 410.283L853.771 408.336L1169.17 334.094L1102.96 257.31L1 257.31L1 1055.31L1439 1055.31L1439 1034.21L1338.15 636.954L1225.57 715.177L1224.43 713.534L1339.37 633.665L1439 1026.08L1439 711.279L1387.24 507.352L1155.43 637.675L1154.17 636.162L1313.35 445.483L1030.58 432.598L1030.34 430.641L1296.53 350.823L1215.34 257.31ZM179.005 337.305L173.5 322.428L167.995 337.305L153.118 342.81L167.995 348.315L173.5 363.191L179.005 348.315L193.882 342.81L179.005 337.305ZM173.5 328.191L177.448 338.862L177.88 339.021L188.118 342.81L177.448 346.758L173.5 357.428L169.552 346.758L158.882 342.81L169.552 338.862L173.5 328.191ZM99.976 370.334L91.5 347.428L83.024 370.334L60.1184 378.81L83.024 387.286L91.5 410.191L99.976 387.286L122.882 378.81L99.976 370.334ZM91.5 353.191L98.4195 371.891L98.8507 372.05L117.118 378.81L98.4195 385.729L91.5 404.428L84.5805 385.729L65.8816 378.81L84.5805 371.891L91.5 353.191ZM1211.07 509.31L1085.08 509.31L1085.08 511.31L1206.93 511.31L1066.22 688.688L1067.78 689.931L1211.07 509.31ZM1328.5 852.88L1304.14 724.124L1303.78 722.213L1245.54 783.154L1328.5 852.88ZM1302.54 726.407L1325.5 847.739L1248.46 782.995L1302.54 726.407ZM972.275 807.035L966.5 791.428L960.725 807.035L945.118 812.81L960.725 818.585L966.5 834.191L972.275 818.585L987.882 812.81L972.275 807.035ZM966.5 797.191L970.718 808.591L971.15 808.751L982.118 812.81L970.718 817.028L966.5 828.428L962.282 817.028L950.882 812.81L962.282 808.591L966.5 797.191ZM1066.49 853.823L1054.5 821.428L1042.51 853.823L1010.12 865.81L1042.51 877.797L1054.5 910.191L1066.49 877.797L1098.88 865.81L1066.49 853.823ZM1054.5 827.191L1064.93 855.379L1065.36 855.539L1093.12 865.81L1064.93 876.24L1054.5 904.428L1044.07 876.24L1015.88 865.81L1044.07 855.379L1054.5 827.191ZM1379.96 1043.05L1345.96 919.045L1344.04 919.574L1378.04 1043.57L1379.96 1043.05Z" id="Форма 1"/>
	<path fill-rule="evenodd" fill="rgb(225,255,143)" d="M91.5 350.31L99.1978 371.112L120 378.81L99.1978 386.507L91.5 407.31L83.8022 386.507L63 378.81L83.8022 371.112L91.5 350.31Z" id="Форма 1"/>
	<path fill-rule="evenodd" fill="rgb(188,236,48)" d="M91.5 350.31L99.1978 371.112L120 378.81L99.1978 386.507L91.5 407.31L83.8022 386.507L63 378.81L83.8022 371.112L91.5 350.31Z" id="Форма 1"/>
	<path fill-rule="evenodd" fill="rgb(32,32,39)" d="M1556.28 448.032L1831.47 418.494L1833.52 418.275C1833.52 418.275 1832.86 417.998 1831.62 417.472C1808.5 407.702 1581.61 311.843 1562.68 305.048C1562.22 304.886 1561.89 304.774 1561.68 304.716L1562.31 303.862L1724.7 81.3537L1726.48 78.912L1723.99 80.6267L1472.7 253.715L1471.77 254.358L1471.64 253.232L1443.35 2.82446L1443.03 0L1442.34 2.75624L1379.29 252.826L1379.04 253.813L1378.11 253.38L1101.64 123.322L1099.4 122.269L1101.03 124.137L1214.92 255.31L1215.79 256.31L0 256.31L0 1056.31L1440 1056.31L1440 711.154L1441 715.094L1457.04 778.299L1457.77 781.166L1458.06 778.222L1482.93 520.833L1483.04 519.722L1483.98 520.312L1728.53 672.44L1730.99 673.97L1729.21 671.686L1555.83 449.086L1555.11 448.158L1556.28 448.032ZM1726.76 670.156L1553.22 447.355L1829.57 417.692C1819.2 413.309 1806.64 408.005 1791.89 401.783C1758.52 387.709 1728.12 374.904 1700.66 363.367C1661.97 347.105 1630.98 334.142 1607.72 324.477C1578.98 312.537 1563.54 306.271 1561.41 305.679L1560.02 305.292L1722.21 83.0685L1470.96 256.128L1442.65 5.5807L1379.71 255.235L1103.26 125.19L1216.25 255.31L1441 255.31L1441 711.03L1457.33 775.356L1482.2 518.022L1726.76 670.156ZM1439 703.151L1439 257.31L1217.98 257.31L1300.07 351.85L1036.55 430.868L1317.47 443.669L1159.2 633.261L1388.53 504.329L1439 703.151ZM1215.34 257.31L1105.6 257.31L1172.83 335.285L854.229 410.283L853.771 408.336L1169.17 334.094L1102.96 257.31L1 257.31L1 1055.31L1439 1055.31L1439 1034.21L1338.15 636.954L1225.57 715.177L1224.43 713.534L1339.37 633.665L1439 1026.08L1439 711.279L1387.24 507.352L1155.43 637.675L1154.17 636.162L1313.35 445.483L1030.58 432.598L1030.34 430.641L1296.53 350.823L1215.34 257.31ZM179.005 337.305L173.5 322.428L167.995 337.305L153.118 342.81L167.995 348.315L173.5 363.191L179.005 348.315L193.882 342.81L179.005 337.305ZM173.5 328.191L177.448 338.862L177.88 339.021L188.118 342.81L177.448 346.758L173.5 357.428L169.552 346.758L158.882 342.81L169.552 338.862L173.5 328.191ZM99.976 370.334L91.5 347.428L83.024 370.334L60.1184 378.81L83.024 387.286L91.5 410.191L99.976 387.286L122.882 378.81L99.976 370.334ZM91.5 353.191L98.4195 371.891L98.8507 372.05L117.118 378.81L98.4195 385.729L91.5 404.428L84.5805 385.729L65.8816 378.81L84.5805 371.891L91.5 353.191ZM1211.07 509.31L1085.08 509.31L1085.08 511.31L1206.93 511.31L1066.22 688.688L1067.78 689.931L1211.07 509.31ZM1328.5 852.88L1304.14 724.124L1303.78 722.213L1245.54 783.154L1328.5 852.88ZM1302.54 726.407L1325.5 847.739L1248.46 782.995L1302.54 726.407ZM972.275 807.035L966.5 791.428L960.725 807.035L945.118 812.81L960.725 818.585L966.5 834.191L972.275 818.585L987.882 812.81L972.275 807.035ZM966.5 797.191L970.718 808.591L971.15 808.751L982.118 812.81L970.718 817.028L966.5 828.428L962.282 817.028L950.882 812.81L962.282 808.591L966.5 797.191ZM1066.49 853.823L1054.5 821.428L1042.51 853.823L1010.12 865.81L1042.51 877.797L1054.5 910.191L1066.49 877.797L1098.88 865.81L1066.49 853.823ZM1054.5 827.191L1064.93 855.379L1065.36 855.539L1093.12 865.81L1064.93 876.24L1054.5 904.428L1044.07 876.24L1015.88 865.81L1044.07 855.379L1054.5 827.191ZM1379.96 1043.05L1345.96 919.045L1344.04 919.574L1378.04 1043.57L1379.96 1043.05Z" id="Форма 1"/>
	<path fill-rule="evenodd" fill="rgb(225,255,143)" d="M966.5 794.31L971.497 807.813L985 812.81L971.497 817.807L966.5 831.31L961.503 817.807L948 812.81L961.503 807.813L966.5 794.31Z" id="Форма 1"/>
	<path fill-rule="evenodd" fill="rgb(188,236,48)" d="M966.5 794.31L971.497 807.813L985 812.81L971.497 817.807L966.5 831.31L961.503 817.807L948 812.81L961.503 807.813L966.5 794.31Z" id="Форма 1"/>
	<path fill-rule="evenodd" fill="rgb(32,32,39)" d="M1556.28 448.032L1831.47 418.494L1833.52 418.275C1833.52 418.275 1832.86 417.998 1831.62 417.472C1808.5 407.702 1581.61 311.843 1562.68 305.048C1562.22 304.886 1561.89 304.774 1561.68 304.716L1562.31 303.862L1724.7 81.3537L1726.48 78.912L1723.99 80.6267L1472.7 253.715L1471.77 254.358L1471.64 253.232L1443.35 2.82446L1443.03 0L1442.34 2.75624L1379.29 252.826L1379.04 253.813L1378.11 253.38L1101.64 123.322L1099.4 122.269L1101.03 124.137L1214.92 255.31L1215.79 256.31L0 256.31L0 1056.31L1440 1056.31L1440 711.154L1441 715.094L1457.04 778.299L1457.77 781.166L1458.06 778.222L1482.93 520.833L1483.04 519.722L1483.98 520.312L1728.53 672.44L1730.99 673.97L1729.21 671.686L1555.83 449.086L1555.11 448.158L1556.28 448.032ZM1726.76 670.156L1553.22 447.355L1829.57 417.692C1819.2 413.309 1806.64 408.005 1791.89 401.783C1758.52 387.709 1728.12 374.904 1700.66 363.367C1661.97 347.105 1630.98 334.142 1607.72 324.477C1578.98 312.537 1563.54 306.271 1561.41 305.679L1560.02 305.292L1722.21 83.0685L1470.96 256.128L1442.65 5.5807L1379.71 255.235L1103.26 125.19L1216.25 255.31L1441 255.31L1441 711.03L1457.33 775.356L1482.2 518.022L1726.76 670.156ZM1439 703.151L1439 257.31L1217.98 257.31L1300.07 351.85L1036.55 430.868L1317.47 443.669L1159.2 633.261L1388.53 504.329L1439 703.151ZM1215.34 257.31L1105.6 257.31L1172.83 335.285L854.229 410.283L853.771 408.336L1169.17 334.094L1102.96 257.31L1 257.31L1 1055.31L1439 1055.31L1439 1034.21L1338.15 636.954L1225.57 715.177L1224.43 713.534L1339.37 633.665L1439 1026.08L1439 711.279L1387.24 507.352L1155.43 637.675L1154.17 636.162L1313.35 445.483L1030.58 432.598L1030.34 430.641L1296.53 350.823L1215.34 257.31ZM179.005 337.305L173.5 322.428L167.995 337.305L153.118 342.81L167.995 348.315L173.5 363.191L179.005 348.315L193.882 342.81L179.005 337.305ZM173.5 328.191L177.448 338.862L177.88 339.021L188.118 342.81L177.448 346.758L173.5 357.428L169.552 346.758L158.882 342.81L169.552 338.862L173.5 328.191ZM99.976 370.334L91.5 347.428L83.024 370.334L60.1184 378.81L83.024 387.286L91.5 410.191L99.976 387.286L122.882 378.81L99.976 370.334ZM91.5 353.191L98.4195 371.891L98.8507 372.05L117.118 378.81L98.4195 385.729L91.5 404.428L84.5805 385.729L65.8816 378.81L84.5805 371.891L91.5 353.191ZM1211.07 509.31L1085.08 509.31L1085.08 511.31L1206.93 511.31L1066.22 688.688L1067.78 689.931L1211.07 509.31ZM1328.5 852.88L1304.14 724.124L1303.78 722.213L1245.54 783.154L1328.5 852.88ZM1302.54 726.407L1325.5 847.739L1248.46 782.995L1302.54 726.407ZM972.275 807.035L966.5 791.428L960.725 807.035L945.118 812.81L960.725 818.585L966.5 834.191L972.275 818.585L987.882 812.81L972.275 807.035ZM966.5 797.191L970.718 808.591L971.15 808.751L982.118 812.81L970.718 817.028L966.5 828.428L962.282 817.028L950.882 812.81L962.282 808.591L966.5 797.191ZM1066.49 853.823L1054.5 821.428L1042.51 853.823L1010.12 865.81L1042.51 877.797L1054.5 910.191L1066.49 877.797L1098.88 865.81L1066.49 853.823ZM1054.5 827.191L1064.93 855.379L1065.36 855.539L1093.12 865.81L1064.93 876.24L1054.5 904.428L1044.07 876.24L1015.88 865.81L1044.07 855.379L1054.5 827.191ZM1379.96 1043.05L1345.96 919.045L1344.04 919.574L1378.04 1043.57L1379.96 1043.05Z" id="Форма 1"/>
	<path fill-rule="evenodd" fill="rgb(225,255,143)" d="M173.5 325.31L178.227 338.083L191 342.81L178.227 347.536L173.5 360.31L168.773 347.536L156 342.81L168.773 338.083L173.5 325.31Z" id="Форма 1"/>
	<path fill-rule="evenodd" fill="rgb(188,236,48)" d="M173.5 325.31L178.227 338.083L191 342.81L178.227 347.536L173.5 360.31L168.773 347.536L156 342.81L168.773 338.083L173.5 325.31Z" id="Форма 1"/>
	<path fill-rule="evenodd" fill="rgb(32,32,39)" d="M1556.28 448.032L1831.47 418.494L1833.52 418.275C1833.52 418.275 1832.86 417.998 1831.62 417.472C1808.5 407.702 1581.61 311.843 1562.68 305.048C1562.22 304.886 1561.89 304.774 1561.68 304.716L1562.31 303.862L1724.7 81.3537L1726.48 78.912L1723.99 80.6267L1472.7 253.715L1471.77 254.358L1471.64 253.232L1443.35 2.82446L1443.03 0L1442.34 2.75624L1379.29 252.826L1379.04 253.813L1378.11 253.38L1101.64 123.322L1099.4 122.269L1101.03 124.137L1214.92 255.31L1215.79 256.31L0 256.31L0 1056.31L1440 1056.31L1440 711.154L1441 715.094L1457.04 778.299L1457.77 781.166L1458.06 778.222L1482.93 520.833L1483.04 519.722L1483.98 520.312L1728.53 672.44L1730.99 673.97L1729.21 671.686L1555.83 449.086L1555.11 448.158L1556.28 448.032ZM1726.76 670.156L1553.22 447.355L1829.57 417.692C1819.2 413.309 1806.64 408.005 1791.89 401.783C1758.52 387.709 1728.12 374.904 1700.66 363.367C1661.97 347.105 1630.98 334.142 1607.72 324.477C1578.98 312.537 1563.54 306.271 1561.41 305.679L1560.02 305.292L1722.21 83.0685L1470.96 256.128L1442.65 5.5807L1379.71 255.235L1103.26 125.19L1216.25 255.31L1441 255.31L1441 711.03L1457.33 775.356L1482.2 518.022L1726.76 670.156ZM1439 703.151L1439 257.31L1217.98 257.31L1300.07 351.85L1036.55 430.868L1317.47 443.669L1159.2 633.261L1388.53 504.329L1439 703.151ZM1215.34 257.31L1105.6 257.31L1172.83 335.285L854.229 410.283L853.771 408.336L1169.17 334.094L1102.96 257.31L1 257.31L1 1055.31L1439 1055.31L1439 1034.21L1338.15 636.954L1225.57 715.177L1224.43 713.534L1339.37 633.665L1439 1026.08L1439 711.279L1387.24 507.352L1155.43 637.675L1154.17 636.162L1313.35 445.483L1030.58 432.598L1030.34 430.641L1296.53 350.823L1215.34 257.31ZM179.005 337.305L173.5 322.428L167.995 337.305L153.118 342.81L167.995 348.315L173.5 363.191L179.005 348.315L193.882 342.81L179.005 337.305ZM173.5 328.191L177.448 338.862L177.88 339.021L188.118 342.81L177.448 346.758L173.5 357.428L169.552 346.758L158.882 342.81L169.552 338.862L173.5 328.191ZM99.976 370.334L91.5 347.428L83.024 370.334L60.1184 378.81L83.024 387.286L91.5 410.191L99.976 387.286L122.882 378.81L99.976 370.334ZM91.5 353.191L98.4195 371.891L98.8507 372.05L117.118 378.81L98.4195 385.729L91.5 404.428L84.5805 385.729L65.8816 378.81L84.5805 371.891L91.5 353.191ZM1211.07 509.31L1085.08 509.31L1085.08 511.31L1206.93 511.31L1066.22 688.688L1067.78 689.931L1211.07 509.31ZM1328.5 852.88L1304.14 724.124L1303.78 722.213L1245.54 783.154L1328.5 852.88ZM1302.54 726.407L1325.5 847.739L1248.46 782.995L1302.54 726.407ZM972.275 807.035L966.5 791.428L960.725 807.035L945.118 812.81L960.725 818.585L966.5 834.191L972.275 818.585L987.882 812.81L972.275 807.035ZM966.5 797.191L970.718 808.591L971.15 808.751L982.118 812.81L970.718 817.028L966.5 828.428L962.282 817.028L950.882 812.81L962.282 808.591L966.5 797.191ZM1066.49 853.823L1054.5 821.428L1042.51 853.823L1010.12 865.81L1042.51 877.797L1054.5 910.191L1066.49 877.797L1098.88 865.81L1066.49 853.823ZM1054.5 827.191L1064.93 855.379L1065.36 855.539L1093.12 865.81L1064.93 876.24L1054.5 904.428L1044.07 876.24L1015.88 865.81L1044.07 855.379L1054.5 827.191ZM1379.96 1043.05L1345.96 919.045L1344.04 919.574L1378.04 1043.57L1379.96 1043.05Z" id="Форма 1"/>
	<path fill-rule="evenodd" fill="rgb(225,255,143)" d="M1054.5 824.31L1065.71 854.601L1096 865.81L1065.71 877.019L1054.5 907.31L1043.29 877.019L1013 865.81L1043.29 854.601L1054.5 824.31Z" id="Форма 1"/>
	<path fill-rule="evenodd" fill="rgb(188,236,48)" d="M1054.5 824.31L1065.71 854.601L1096 865.81L1065.71 877.019L1054.5 907.31L1043.29 877.019L1013 865.81L1043.29 854.601L1054.5 824.31Z" id="Форма 1"/>
	<path fill-rule="evenodd" fill="rgb(32,32,39)" d="M1556.28 448.032L1831.47 418.494L1833.52 418.275C1833.52 418.275 1832.86 417.998 1831.62 417.472C1808.5 407.702 1581.61 311.843 1562.68 305.048C1562.22 304.886 1561.89 304.774 1561.68 304.716L1562.31 303.862L1724.7 81.3537L1726.48 78.912L1723.99 80.6267L1472.7 253.715L1471.77 254.358L1471.64 253.232L1443.35 2.82446L1443.03 0L1442.34 2.75624L1379.29 252.826L1379.04 253.813L1378.11 253.38L1101.64 123.322L1099.4 122.269L1101.03 124.137L1214.92 255.31L1215.79 256.31L0 256.31L0 1056.31L1440 1056.31L1440 711.154L1441 715.094L1457.04 778.299L1457.77 781.166L1458.06 778.222L1482.93 520.833L1483.04 519.722L1483.98 520.312L1728.53 672.44L1730.99 673.97L1729.21 671.686L1555.83 449.086L1555.11 448.158L1556.28 448.032ZM1726.76 670.156L1553.22 447.355L1829.57 417.692C1819.2 413.309 1806.64 408.005 1791.89 401.783C1758.52 387.709 1728.12 374.904 1700.66 363.367C1661.97 347.105 1630.98 334.142 1607.72 324.477C1578.98 312.537 1563.54 306.271 1561.41 305.679L1560.02 305.292L1722.21 83.0685L1470.96 256.128L1442.65 5.5807L1379.71 255.235L1103.26 125.19L1216.25 255.31L1441 255.31L1441 711.03L1457.33 775.356L1482.2 518.022L1726.76 670.156ZM1439 703.151L1439 257.31L1217.98 257.31L1300.07 351.85L1036.55 430.868L1317.47 443.669L1159.2 633.261L1388.53 504.329L1439 703.151ZM1215.34 257.31L1105.6 257.31L1172.83 335.285L854.229 410.283L853.771 408.336L1169.17 334.094L1102.96 257.31L1 257.31L1 1055.31L1439 1055.31L1439 1034.21L1338.15 636.954L1225.57 715.177L1224.43 713.534L1339.37 633.665L1439 1026.08L1439 711.279L1387.24 507.352L1155.43 637.675L1154.17 636.162L1313.35 445.483L1030.58 432.598L1030.34 430.641L1296.53 350.823L1215.34 257.31ZM179.005 337.305L173.5 322.428L167.995 337.305L153.118 342.81L167.995 348.315L173.5 363.191L179.005 348.315L193.882 342.81L179.005 337.305ZM173.5 328.191L177.448 338.862L177.88 339.021L188.118 342.81L177.448 346.758L173.5 357.428L169.552 346.758L158.882 342.81L169.552 338.862L173.5 328.191ZM99.976 370.334L91.5 347.428L83.024 370.334L60.1184 378.81L83.024 387.286L91.5 410.191L99.976 387.286L122.882 378.81L99.976 370.334ZM91.5 353.191L98.4195 371.891L98.8507 372.05L117.118 378.81L98.4195 385.729L91.5 404.428L84.5805 385.729L65.8816 378.81L84.5805 371.891L91.5 353.191ZM1211.07 509.31L1085.08 509.31L1085.08 511.31L1206.93 511.31L1066.22 688.688L1067.78 689.931L1211.07 509.31ZM1328.5 852.88L1304.14 724.124L1303.78 722.213L1245.54 783.154L1328.5 852.88ZM1302.54 726.407L1325.5 847.739L1248.46 782.995L1302.54 726.407ZM972.275 807.035L966.5 791.428L960.725 807.035L945.118 812.81L960.725 818.585L966.5 834.191L972.275 818.585L987.882 812.81L972.275 807.035ZM966.5 797.191L970.718 808.591L971.15 808.751L982.118 812.81L970.718 817.028L966.5 828.428L962.282 817.028L950.882 812.81L962.282 808.591L966.5 797.191ZM1066.49 853.823L1054.5 821.428L1042.51 853.823L1010.12 865.81L1042.51 877.797L1054.5 910.191L1066.49 877.797L1098.88 865.81L1066.49 853.823ZM1054.5 827.191L1064.93 855.379L1065.36 855.539L1093.12 865.81L1064.93 876.24L1054.5 904.428L1044.07 876.24L1015.88 865.81L1044.07 855.379L1054.5 827.191ZM1379.96 1043.05L1345.96 919.045L1344.04 919.574L1378.04 1043.57L1379.96 1043.05Z" id="Форма 1"/>
</svg>